<?xml version="1.0" encoding="UTF-8" standalone="no"?><svg xmlns="http://www.w3.org/2000/svg" xmlns:xlink="http://www.w3.org/1999/xlink" contentScriptType="application/ecmascript" contentStyleType="text/css" height="241px" preserveAspectRatio="none" style="width:260px;height:241px;background:#FFFFFF;" version="1.1" viewBox="0 0 260 241" width="260px" zoomAndPan="magnify"><defs><filter height="300%" id="fj7ad0k86l2g9" width="300%" x="-1" y="-1"><feGaussianBlur result="blurOut" stdDeviation="2.0"/><feColorMatrix in="blurOut" result="blurOut2" type="matrix" values="0 0 0 0 0 0 0 0 0 0 0 0 0 0 0 0 0 0 .4 0"/><feOffset dx="4.0" dy="4.0" in="blurOut2" result="blurOut3"/><feBlend in="SourceGraphic" in2="blurOut3" mode="normal"/></filter></defs><g><text fill="#000000" font-family="sans-serif" font-size="18" lengthAdjust="spacing" textLength="169" x="39.25" y="17.4023">Modèle de données</text><!--MD5=[f84e857de5a9ca5678aed72e3e98d0a5]
class Etudiant--><rect codeLine="3" fill="#FEFECE" filter="url(#fj7ad0k86l2g9)" height="73.9102" id="Etudiant" style="stroke:#A80036;stroke-width:1.5;" width="92" x="7" y="153.1992"/><ellipse cx="27.85" cy="169.1992" fill="#ADD1B2" rx="11" ry="11" style="stroke:#A80036;stroke-width:1.0;"/><path d="M30.3231,175.3423 Q29.7421,175.6411 29.1029,175.7905 Q28.4638,175.9399 27.7582,175.9399 Q25.2514,175.9399 23.9315,174.2881 Q22.6117,172.6362 22.6117,169.5151 Q22.6117,166.3857 23.9315,164.7339 Q25.2514,163.082 27.7582,163.082 Q28.4638,163.082 29.1112,163.2314 Q29.7587,163.3809 30.3231,163.6797 L30.3231,166.4023 Q29.6923,165.8213 29.0988,165.5515 Q28.5053,165.2817 27.8744,165.2817 Q26.5297,165.2817 25.8449,166.3484 Q25.1601,167.415 25.1601,169.5151 Q25.1601,171.6069 25.8449,172.6736 Q26.5297,173.7402 27.8744,173.7402 Q28.5053,173.7402 29.0988,173.4705 Q29.6923,173.2007 30.3231,172.6196 Z " fill="#000000"/><text fill="#000000" font-family="sans-serif" font-size="12" lengthAdjust="spacing" textLength="47" x="43.15" y="173.7344">Etudiant</text><line style="stroke:#A80036;stroke-width:1.5;" x1="8" x2="98" y1="185.1992" y2="185.1992"/><text fill="#000000" font-family="sans-serif" font-size="11" lengthAdjust="spacing" textLength="80" x="13" y="199.834">prenom: string</text><text fill="#000000" font-family="sans-serif" font-size="11" lengthAdjust="spacing" textLength="62" x="13" y="212.7891">nom: string</text><line style="stroke:#A80036;stroke-width:1.5;" x1="8" x2="98" y1="219.1094" y2="219.1094"/><!--MD5=[812dbbef2ae005a8949d280fdf4d98e8]
class Equipe--><rect codeLine="8" fill="#FEFECE" filter="url(#fj7ad0k86l2g9)" height="48" id="Equipe" style="stroke:#A80036;stroke-width:1.5;" width="72" x="94" y="28.1992"/><ellipse cx="109" cy="44.1992" fill="#ADD1B2" rx="11" ry="11" style="stroke:#A80036;stroke-width:1.0;"/><path d="M111.4731,50.3423 Q110.8921,50.6411 110.2529,50.7905 Q109.6138,50.9399 108.9082,50.9399 Q106.4014,50.9399 105.0815,49.2881 Q103.7617,47.6362 103.7617,44.5151 Q103.7617,41.3857 105.0815,39.7339 Q106.4014,38.082 108.9082,38.082 Q109.6138,38.082 110.2612,38.2314 Q110.9087,38.3809 111.4731,38.6797 L111.4731,41.4023 Q110.8423,40.8213 110.2488,40.5515 Q109.6553,40.2817 109.0244,40.2817 Q107.6797,40.2817 106.9949,41.3484 Q106.3101,42.415 106.3101,44.5151 Q106.3101,46.6069 106.9949,47.6736 Q107.6797,48.7402 109.0244,48.7402 Q109.6553,48.7402 110.2488,48.4705 Q110.8423,48.2007 111.4731,47.6196 Z " fill="#000000"/><text fill="#000000" font-family="sans-serif" font-size="12" lengthAdjust="spacing" textLength="40" x="123" y="48.7344">Equipe</text><line style="stroke:#A80036;stroke-width:1.5;" x1="95" x2="165" y1="60.1992" y2="60.1992"/><line style="stroke:#A80036;stroke-width:1.5;" x1="95" x2="165" y1="68.1992" y2="68.1992"/><!--MD5=[c75e629d71444dd998043aef5ce1a035]
class R--><rect codeLine="9" fill="#FEFECE" filter="url(#fj7ad0k86l2g9)" height="48" id="R" style="stroke:#A80036;stroke-width:1.5;" width="79" x="167.5" y="166.1992"/><ellipse cx="182.5" cy="182.1992" fill="#ADD1B2" rx="11" ry="11" style="stroke:#A80036;stroke-width:1.0;"/><path d="M184.9731,188.3423 Q184.3921,188.6411 183.7529,188.7905 Q183.1138,188.9399 182.4082,188.9399 Q179.9014,188.9399 178.5815,187.2881 Q177.2617,185.6362 177.2617,182.5151 Q177.2617,179.3857 178.5815,177.7339 Q179.9014,176.082 182.4082,176.082 Q183.1138,176.082 183.7612,176.2314 Q184.4087,176.3809 184.9731,176.6797 L184.9731,179.4023 Q184.3423,178.8213 183.7488,178.5515 Q183.1553,178.2817 182.5244,178.2817 Q181.1797,178.2817 180.4949,179.3484 Q179.8101,180.415 179.8101,182.5151 Q179.8101,184.6069 180.4949,185.6736 Q181.1797,186.7402 182.5244,186.7402 Q183.1553,186.7402 183.7488,186.4705 Q184.3423,186.2007 184.9731,185.6196 Z " fill="#000000"/><text fill="#000000" font-family="sans-serif" font-size="12" lengthAdjust="spacing" textLength="47" x="196.5" y="186.7344">Rapport</text><line style="stroke:#A80036;stroke-width:1.5;" x1="168.5" x2="245.5" y1="198.1992" y2="198.1992"/><line style="stroke:#A80036;stroke-width:1.5;" x1="168.5" x2="245.5" y1="206.1992" y2="206.1992"/><!--MD5=[37daad8cdfa0c318b7ed050d6031b011]
link Equipe to Etudiant--><path codeLine="11" d="M93.85,67.4792 C77.33,76.0492 59.38,88.7292 50,106.1992 C42.43,120.2992 41.99,137.7792 43.91,153.0492 " fill="none" id="Equipe-Etudiant" style="stroke:#A80036;stroke-width:1.0;"/><polygon fill="#000000" points="52.4797,119.1729,59.5772,112.8422,54.5007,109.8795,52.4797,119.1729" style="stroke:#000000;stroke-width:1.0;"/><text fill="#000000" font-family="sans-serif" font-size="13" lengthAdjust="spacing" textLength="99" x="64" y="119.7676">est composé de</text><text fill="#000000" font-family="sans-serif" font-size="13" lengthAdjust="spacing" textLength="8" x="77.9455" y="66.6098">1</text><text fill="#000000" font-family="sans-serif" font-size="13" lengthAdjust="spacing" textLength="6" x="35.6809" y="142.4221">*</text><!--MD5=[cbd94ef2b1c6e86e4e7c2f01c5fb5d14]
link Equipe to R--><path codeLine="12" d="M147.98,76.3292 C154.65,85.3892 162.04,96.0392 168,106.1992 C179.44,125.6992 190.19,149.0992 197.49,166.0792 " fill="none" id="Equipe-R" style="stroke:#A80036;stroke-width:1.0;"/><polygon fill="#000000" points="183.4151,119.2325,181.6195,109.893,176.4728,112.7322,183.4151,119.2325" style="stroke:#000000;stroke-width:1.0;"/><text fill="#000000" font-family="sans-serif" font-size="13" lengthAdjust="spacing" textLength="42" x="190" y="119.7676">génère</text><text fill="#000000" font-family="sans-serif" font-size="13" lengthAdjust="spacing" textLength="8" x="186.0281" y="155.5847">3</text><!--MD5=[1fcee057f1226affa78faf9c6a551318]
@startuml mdd-laboratoire-01
title Modèle de données

class Etudiant {
  prenom: string
  nom: string
}

class Equipe
class "Rapport" as R

Equipe "1" - - "*" Etudiant : est composé de >
Equipe - - "3" R: génère >

@enduml

PlantUML version 1.2022.0(Tue Jan 11 11:16:42 EST 2022)
(GPL source distribution)
Java Runtime: Java(TM) SE Runtime Environment
JVM: Java HotSpot(TM) 64-Bit Server VM
Default Encoding: UTF-8
Language: fr
Country: CA
--></g></svg>